<svg id="visual" viewBox="0 0 900 600" width="900" height="600" xmlns="http://www.w3.org/2000/svg" xmlns:xlink="http://www.w3.org/1999/xlink" version="1.1"><rect x="0" y="0" width="900" height="600" fill="#1E1F21"></rect><defs><linearGradient id="grad1_0" x1="33.3%" y1="100%" x2="100%" y2="0%"><stop offset="20%" stop-color="#1e1f21" stop-opacity="1"></stop><stop offset="80%" stop-color="#1e1f21" stop-opacity="1"></stop></linearGradient></defs><defs><linearGradient id="grad2_0" x1="0%" y1="100%" x2="66.7%" y2="0%"><stop offset="20%" stop-color="#1e1f21" stop-opacity="1"></stop><stop offset="80%" stop-color="#1e1f21" stop-opacity="1"></stop></linearGradient></defs><g transform="translate(900, 600)"><path d="M-351.5 0C-329.8 -53.9 -308 -107.8 -281.5 -162.5C-254.9 -217.2 -223.5 -272.8 -175.8 -304.4C-128.1 -336.1 -64 -343.8 0 -351.5L0 0Z" fill="#7000a3"></path></g><g transform="translate(0, 0)"><path d="M351.5 0C342.6 62 333.7 123.9 304.4 175.8C275.2 227.6 225.6 269.4 171.5 297C117.4 324.7 58.7 338.1 0 351.5L0 0Z" fill="#7000a3"></path></g></svg>