<svg id="visual" viewBox="0 0 900 600" width="900" height="600" xmlns="http://www.w3.org/2000/svg" xmlns:xlink="http://www.w3.org/1999/xlink" version="1.1"><rect x="0" y="0" width="900" height="600" fill="#1E1F21"></rect><g fill="none" stroke="#7000a3" stroke-width="2"><circle r="12" cx="335" cy="17"></circle><circle r="-1" cx="671" cy="151"></circle><circle r="10" cx="516" cy="523"></circle><circle r="5" cx="340" cy="394"></circle><circle r="4" cx="173" cy="503"></circle><circle r="-1" cx="737" cy="474"></circle><circle r="4" cx="52" cy="313"></circle><circle r="7" cx="725" cy="210"></circle><circle r="1" cx="131" cy="144"></circle><circle r="7" cx="19" cy="504"></circle><circle r="5" cx="54" cy="374"></circle><circle r="9" cx="74" cy="469"></circle><circle r="0" cx="418" cy="186"></circle><circle r="9" cx="618" cy="169"></circle><circle r="8" cx="406" cy="157"></circle><circle r="3" cx="515" cy="579"></circle><circle r="4" cx="678" cy="295"></circle><circle r="8" cx="778" cy="142"></circle><circle r="6" cx="684" cy="175"></circle><circle r="1" cx="348" cy="424"></circle><circle r="-2" cx="608" cy="406"></circle><circle r="3" cx="482" cy="444"></circle><circle r="6" cx="680" cy="484"></circle><circle r="7" cx="21" cy="29"></circle><circle r="3" cx="332" cy="129"></circle><circle r="-1" cx="528" cy="551"></circle><circle r="-1" cx="820" cy="517"></circle><circle r="4" cx="738" cy="428"></circle><circle r="7" cx="478" cy="595"></circle><circle r="6" cx="662" cy="451"></circle><circle r="-1" cx="473" cy="367"></circle><circle r="-1" cx="749" cy="20"></circle><circle r="4" cx="386" cy="398"></circle><circle r="9" cx="565" cy="8"></circle><circle r="4" cx="808" cy="383"></circle><circle r="4" cx="157" cy="584"></circle><circle r="-1" cx="850" cy="43"></circle><circle r="1" cx="131" cy="218"></circle><circle r="8" cx="818" cy="260"></circle><circle r="4" cx="449" cy="520"></circle><circle r="1" cx="829" cy="24"></circle><circle r="9" cx="234" cy="529"></circle><circle r="-1" cx="392" cy="360"></circle><circle r="-1" cx="878" cy="136"></circle><circle r="3" cx="595" cy="530"></circle><circle r="8" cx="343" cy="312"></circle><circle r="7" cx="84" cy="90"></circle><circle r="6" cx="844" cy="252"></circle><circle r="10" cx="420" cy="251"></circle><circle r="9" cx="487" cy="303"></circle><circle r="9" cx="321" cy="267"></circle><circle r="9" cx="373" cy="163"></circle><circle r="0" cx="288" cy="560"></circle><circle r="6" cx="722" cy="137"></circle><circle r="0" cx="116" cy="181"></circle><circle r="3" cx="443" cy="126"></circle><circle r="1" cx="791" cy="219"></circle><circle r="8" cx="101" cy="512"></circle><circle r="-1" cx="563" cy="273"></circle><circle r="4" cx="419" cy="576"></circle><circle r="10" cx="426" cy="288"></circle><circle r="5" cx="300" cy="510"></circle><circle r="4" cx="463" cy="265"></circle><circle r="-2" cx="881" cy="429"></circle><circle r="7" cx="240" cy="334"></circle><circle r="8" cx="289" cy="98"></circle><circle r="-1" cx="874" cy="593"></circle><circle r="7" cx="397" cy="87"></circle><circle r="4" cx="581" cy="503"></circle><circle r="-1" cx="341" cy="531"></circle><circle r="10" cx="88" cy="246"></circle><circle r="7" cx="793" cy="481"></circle><circle r="5" cx="260" cy="218"></circle><circle r="1" cx="67" cy="209"></circle><circle r="0" cx="694" cy="509"></circle><circle r="4" cx="274" cy="396"></circle><circle r="7" cx="62" cy="55"></circle><circle r="10" cx="366" cy="117"></circle><circle r="-2" cx="712" cy="10"></circle><circle r="5" cx="596" cy="54"></circle><circle r="0" cx="654" cy="516"></circle><circle r="1" cx="805" cy="449"></circle><circle r="4" cx="175" cy="107"></circle><circle r="-2" cx="62" cy="178"></circle><circle r="3" cx="569" cy="383"></circle><circle r="-1" cx="701" cy="351"></circle><circle r="5" cx="441" cy="310"></circle><circle r="-2" cx="772" cy="281"></circle><circle r="-1" cx="109" cy="381"></circle><circle r="-2" cx="237" cy="136"></circle><circle r="-1" cx="747" cy="299"></circle><circle r="8" cx="858" cy="391"></circle><circle r="-1" cx="119" cy="17"></circle><circle r="9" cx="174" cy="200"></circle><circle r="6" cx="544" cy="166"></circle><circle r="-1" cx="282" cy="142"></circle><circle r="3" cx="223" cy="23"></circle><circle r="7" cx="552" cy="48"></circle></g></svg>