<svg xmlns="http://www.w3.org/2000/svg" xmlns:xlink="http://www.w3.org/1999/xlink" width="500" zoomAndPan="magnify" viewBox="0 0 375 374.999991" height="500" preserveAspectRatio="xMidYMid meet" version="1.0"><defs><g/><clipPath id="4aa41384fb"><path d="M 70.863281 104.558594 L 304.210938 104.558594 L 304.210938 258.824219 L 70.863281 258.824219 Z M 70.863281 104.558594 " clip-rule="nonzero"/></clipPath><clipPath id="38956ddfe4"><path d="M 38 96.960938 L 337 96.960938 L 337 277.710938 L 38 277.710938 Z M 38 96.960938 " clip-rule="nonzero"/></clipPath></defs><g clip-path="url(#4aa41384fb)"><path fill="#2733a1" d="M 70.863281 104.558594 L 304.066406 104.558594 L 304.066406 258.660156 L 70.863281 258.660156 Z M 70.863281 104.558594 " fill-opacity="1" fill-rule="nonzero"/></g><g fill="#ffffff" fill-opacity="1"><g transform="translate(129.181638, 204.633699)"><g><path d="M 18.3125 0.15625 C 16.394531 0.15625 15.332031 -0.269531 15.125 -1.125 L 1.4375 -53.6875 C 1.28125 -54.320312 1.203125 -54.691406 1.203125 -54.796875 C 1.203125 -55.703125 2.347656 -56.15625 4.640625 -56.15625 L 5.4375 -56.15625 C 7.351562 -56.15625 8.421875 -55.726562 8.640625 -54.875 L 18.796875 -15.515625 C 19.066406 -14.503906 19.359375 -13.078125 19.671875 -11.234375 C 19.992188 -9.398438 20.179688 -8.347656 20.234375 -8.078125 L 22.15625 -15.765625 L 31.84375 -54.796875 C 32.050781 -55.703125 33.085938 -56.15625 34.953125 -56.15625 L 36.234375 -56.15625 C 38.109375 -56.15625 39.148438 -55.703125 39.359375 -54.796875 L 49.28125 -15.4375 C 49.601562 -14.269531 49.894531 -12.867188 50.15625 -11.234375 C 50.425781 -9.609375 50.585938 -8.554688 50.640625 -8.078125 L 52.5625 -15.6875 L 62.234375 -54.875 C 62.453125 -55.726562 63.519531 -56.15625 65.4375 -56.15625 L 65.921875 -56.15625 C 68.210938 -56.15625 69.359375 -55.703125 69.359375 -54.796875 L 69.125 -53.6875 L 55.28125 -1.125 C 55.0625 -0.269531 53.992188 0.15625 52.078125 0.15625 L 48.796875 0.15625 C 46.878906 0.15625 45.8125 -0.269531 45.59375 -1.125 L 36.875 -33.6875 L 35.203125 -44.078125 L 33.515625 -33.6875 L 24.796875 -1.125 C 24.585938 -0.269531 23.519531 0.15625 21.59375 0.15625 Z M 18.3125 0.15625 "/></g></g></g><g fill="#ffffff" fill-opacity="1"><g transform="translate(199.734779, 204.633699)"><g><path d="M 10.953125 0.15625 C 8.828125 0.15625 7.765625 -0.425781 7.765625 -1.59375 L 7.765625 -54.40625 C 7.765625 -55.570312 8.828125 -56.15625 10.953125 -56.15625 L 11.59375 -56.15625 C 13.726562 -56.15625 14.796875 -55.570312 14.796875 -54.40625 L 14.796875 -29.921875 L 15.125 -29.921875 L 34.796875 -55.046875 C 35.390625 -55.785156 36.832031 -56.15625 39.125 -56.15625 L 39.921875 -56.15625 C 40.828125 -56.15625 41.519531 -56.0625 42 -55.875 C 42.476562 -55.6875 42.71875 -55.4375 42.71875 -55.125 C 42.71875 -54.644531 42.453125 -54.109375 41.921875 -53.515625 L 21.921875 -28.5625 L 46.15625 -2.234375 C 46.632812 -1.703125 46.875 -1.273438 46.875 -0.953125 C 46.875 -0.523438 46.609375 -0.234375 46.078125 -0.078125 C 45.546875 0.078125 44.640625 0.15625 43.359375 0.15625 L 42.40625 0.15625 C 41.226562 0.15625 40.304688 0.101562 39.640625 0 C 38.972656 -0.101562 38.425781 -0.394531 38 -0.875 L 15.125 -26.640625 L 14.796875 -26.640625 L 14.796875 -1.59375 C 14.796875 -0.425781 13.726562 0.15625 11.59375 0.15625 Z M 10.953125 0.15625 "/></g></g></g><g clip-path="url(#38956ddfe4)"><path fill="#1a1a1a" d="M 73.472656 96.960938 C 68.839844 96.960938 65.113281 100.601562 65.113281 105.125 L 65.113281 254.457031 C 65.113281 258.757812 64.503906 262.261719 68.425781 262.59375 L 40.949219 262.59375 C 37.695312 262.59375 39.359375 265.121094 39.359375 268.261719 L 39.359375 272.042969 C 39.359375 275.183594 41.976562 277.710938 45.230469 277.710938 L 329.917969 277.710938 C 333.167969 277.710938 335.789062 275.183594 335.789062 272.042969 L 335.789062 268.261719 C 335.789062 265.121094 337.449219 262.59375 334.199219 262.59375 L 306.71875 262.59375 C 310.644531 262.261719 310.035156 258.757812 310.035156 254.457031 L 310.035156 105.125 C 310.035156 100.601562 306.308594 96.960938 301.675781 96.960938 Z M 145.710938 98.941406 C 146.898438 98.941406 147.863281 99.878906 147.863281 101.042969 C 147.863281 102.203125 146.898438 103.140625 145.710938 103.140625 C 144.519531 103.140625 143.558594 102.203125 143.558594 101.042969 C 143.558594 99.878906 144.519531 98.941406 145.710938 98.941406 Z M 73.269531 105.140625 L 301.878906 105.140625 L 301.878906 254.4375 L 73.269531 254.4375 Z M 150.410156 262.621094 L 224.738281 262.621094 C 224.628906 264.199219 223.527344 265.433594 222.171875 265.433594 L 152.976562 265.433594 C 151.621094 265.433594 150.519531 264.199219 150.410156 262.621094 Z M 301.332031 267.089844 C 303.082031 267.089844 304.5 268.460938 304.5 270.152344 C 304.5 271.84375 303.082031 273.214844 301.332031 273.214844 C 299.578125 273.214844 298.160156 271.84375 298.160156 270.152344 C 298.160156 268.460938 299.578125 267.089844 301.332031 267.089844 Z M 311.328125 267.089844 C 313.078125 267.089844 314.496094 268.460938 314.496094 270.152344 C 314.496094 271.84375 313.078125 273.214844 311.328125 273.214844 C 309.578125 273.214844 308.15625 271.84375 308.15625 270.152344 C 308.15625 268.460938 309.578125 267.089844 311.328125 267.089844 Z M 321.324219 267.089844 C 323.074219 267.089844 324.492188 268.460938 324.492188 270.152344 C 324.492188 271.84375 323.074219 273.214844 321.324219 273.214844 C 319.574219 273.214844 318.15625 271.84375 318.15625 270.152344 C 318.15625 268.460938 319.574219 267.089844 321.324219 267.089844 Z M 52.011719 269.121094 L 68.640625 269.121094 C 69.453125 269.121094 70.109375 269.582031 70.109375 270.152344 C 70.109375 270.726562 69.453125 271.1875 68.640625 271.1875 L 52.011719 271.1875 C 51.195312 271.1875 50.542969 270.726562 50.542969 270.152344 C 50.542969 269.582031 51.195312 269.121094 52.011719 269.121094 Z M 52.011719 269.121094 " fill-opacity="1" fill-rule="nonzero"/></g><g fill="#ffffff" fill-opacity="1"><g transform="translate(88.365234, 230.7589)"><g><path d="M 2.53125 0 C 2.320312 0 2.171875 -0.046875 2.078125 -0.140625 C 1.984375 -0.234375 1.9375 -0.382812 1.9375 -0.59375 L 1.9375 -13.390625 C 1.9375 -13.597656 1.984375 -13.75 2.078125 -13.84375 C 2.171875 -13.9375 2.320312 -13.984375 2.53125 -13.984375 L 6.578125 -13.984375 C 8.441406 -13.984375 9.9375 -13.425781 11.0625 -12.3125 C 12.1875 -11.207031 12.75 -9.4375 12.75 -7 C 12.75 -4.539062 12.1875 -2.757812 11.0625 -1.65625 C 9.9375 -0.550781 8.441406 0 6.578125 0 Z M 6.4375 -1.515625 C 7.78125 -1.515625 8.863281 -1.953125 9.6875 -2.828125 C 10.519531 -3.710938 10.9375 -5.101562 10.9375 -7 C 10.9375 -8.875 10.519531 -10.253906 9.6875 -11.140625 C 8.863281 -12.023438 7.78125 -12.46875 6.4375 -12.46875 L 3.703125 -12.46875 L 3.703125 -1.515625 Z M 6.4375 -1.515625 "/></g></g></g><g fill="#ffffff" fill-opacity="1"><g transform="translate(102.243472, 230.7589)"><g><path d="M 6 0.125 C 4.332031 0.125 3.097656 -0.304688 2.296875 -1.171875 C 1.492188 -2.046875 1.09375 -3.375 1.09375 -5.15625 C 1.09375 -6.925781 1.484375 -8.269531 2.265625 -9.1875 C 3.054688 -10.113281 4.21875 -10.578125 5.75 -10.578125 C 7.113281 -10.578125 8.140625 -10.128906 8.828125 -9.234375 C 9.523438 -8.347656 9.875 -7.054688 9.875 -5.359375 C 9.875 -5.234375 9.789062 -5.0625 9.625 -4.84375 C 9.46875 -4.632812 9.332031 -4.53125 9.21875 -4.53125 L 2.890625 -4.53125 C 2.972656 -3.425781 3.257812 -2.613281 3.75 -2.09375 C 4.25 -1.570312 4.988281 -1.3125 5.96875 -1.3125 C 6.53125 -1.3125 7.015625 -1.378906 7.421875 -1.515625 C 7.828125 -1.660156 8.160156 -1.800781 8.421875 -1.9375 C 8.691406 -2.082031 8.847656 -2.15625 8.890625 -2.15625 C 9.023438 -2.15625 9.175781 -2.019531 9.34375 -1.75 C 9.507812 -1.488281 9.59375 -1.289062 9.59375 -1.15625 C 9.59375 -1 9.425781 -0.816406 9.09375 -0.609375 C 8.757812 -0.398438 8.316406 -0.222656 7.765625 -0.078125 C 7.210938 0.0546875 6.625 0.125 6 0.125 Z M 8.09375 -5.96875 C 8.09375 -8.082031 7.296875 -9.140625 5.703125 -9.140625 C 3.984375 -9.140625 3.046875 -8.082031 2.890625 -5.96875 Z M 8.09375 -5.96875 "/></g></g></g><g fill="#ffffff" fill-opacity="1"><g transform="translate(113.006594, 230.7589)"><g><path d="M 3.875 0.1875 C 3.300781 0.1875 2.769531 0.117188 2.28125 -0.015625 C 1.800781 -0.160156 1.414062 -0.332031 1.125 -0.53125 C 0.84375 -0.738281 0.703125 -0.921875 0.703125 -1.078125 C 0.703125 -1.210938 0.785156 -1.410156 0.953125 -1.671875 C 1.117188 -1.941406 1.269531 -2.078125 1.40625 -2.078125 C 1.425781 -2.078125 1.550781 -2.003906 1.78125 -1.859375 C 2.007812 -1.710938 2.289062 -1.578125 2.625 -1.453125 C 2.96875 -1.335938 3.34375 -1.28125 3.75 -1.28125 C 5.0625 -1.28125 5.71875 -1.816406 5.71875 -2.890625 C 5.71875 -3.347656 5.570312 -3.707031 5.28125 -3.96875 C 4.988281 -4.238281 4.46875 -4.484375 3.71875 -4.703125 C 2.664062 -5.003906 1.9375 -5.382812 1.53125 -5.84375 C 1.132812 -6.300781 0.9375 -6.914062 0.9375 -7.6875 C 0.9375 -8.25 1.078125 -8.75 1.359375 -9.1875 C 1.648438 -9.632812 2.046875 -9.976562 2.546875 -10.21875 C 3.046875 -10.46875 3.613281 -10.59375 4.25 -10.59375 C 4.9375 -10.59375 5.546875 -10.503906 6.078125 -10.328125 C 6.617188 -10.160156 6.890625 -9.960938 6.890625 -9.734375 C 6.890625 -9.554688 6.8125 -9.332031 6.65625 -9.0625 C 6.507812 -8.789062 6.375 -8.65625 6.25 -8.65625 C 6.207031 -8.664062 6.03125 -8.753906 5.71875 -8.921875 C 5.40625 -9.085938 4.976562 -9.171875 4.4375 -9.171875 C 3.925781 -9.171875 3.5 -9.054688 3.15625 -8.828125 C 2.820312 -8.609375 2.65625 -8.300781 2.65625 -7.90625 C 2.65625 -7.457031 2.773438 -7.097656 3.015625 -6.828125 C 3.253906 -6.566406 3.65625 -6.347656 4.21875 -6.171875 C 5.070312 -5.910156 5.71875 -5.648438 6.15625 -5.390625 C 6.601562 -5.128906 6.925781 -4.804688 7.125 -4.421875 C 7.320312 -4.046875 7.421875 -3.550781 7.421875 -2.9375 C 7.421875 -2.351562 7.257812 -1.820312 6.9375 -1.34375 C 6.625 -0.875 6.195312 -0.5 5.65625 -0.21875 C 5.125 0.0507812 4.53125 0.1875 3.875 0.1875 Z M 3.875 0.1875 "/></g></g></g><g fill="#ffffff" fill-opacity="1"><g transform="translate(121.253663, 230.7589)"><g><path d="M 6 0.125 C 4.332031 0.125 3.097656 -0.304688 2.296875 -1.171875 C 1.492188 -2.046875 1.09375 -3.375 1.09375 -5.15625 C 1.09375 -6.925781 1.484375 -8.269531 2.265625 -9.1875 C 3.054688 -10.113281 4.21875 -10.578125 5.75 -10.578125 C 7.113281 -10.578125 8.140625 -10.128906 8.828125 -9.234375 C 9.523438 -8.347656 9.875 -7.054688 9.875 -5.359375 C 9.875 -5.234375 9.789062 -5.0625 9.625 -4.84375 C 9.46875 -4.632812 9.332031 -4.53125 9.21875 -4.53125 L 2.890625 -4.53125 C 2.972656 -3.425781 3.257812 -2.613281 3.75 -2.09375 C 4.25 -1.570312 4.988281 -1.3125 5.96875 -1.3125 C 6.53125 -1.3125 7.015625 -1.378906 7.421875 -1.515625 C 7.828125 -1.660156 8.160156 -1.800781 8.421875 -1.9375 C 8.691406 -2.082031 8.847656 -2.15625 8.890625 -2.15625 C 9.023438 -2.15625 9.175781 -2.019531 9.34375 -1.75 C 9.507812 -1.488281 9.59375 -1.289062 9.59375 -1.15625 C 9.59375 -1 9.425781 -0.816406 9.09375 -0.609375 C 8.757812 -0.398438 8.316406 -0.222656 7.765625 -0.078125 C 7.210938 0.0546875 6.625 0.125 6 0.125 Z M 8.09375 -5.96875 C 8.09375 -8.082031 7.296875 -9.140625 5.703125 -9.140625 C 3.984375 -9.140625 3.046875 -8.082031 2.890625 -5.96875 Z M 8.09375 -5.96875 "/></g></g></g><g fill="#ffffff" fill-opacity="1"><g transform="translate(132.016785, 230.7589)"><g><path d="M 2.515625 0.046875 C 1.984375 0.046875 1.71875 -0.101562 1.71875 -0.40625 L 1.71875 -7.421875 C 1.71875 -8.296875 1.675781 -8.921875 1.59375 -9.296875 C 1.519531 -9.679688 1.484375 -9.894531 1.484375 -9.9375 C 1.484375 -10.09375 1.609375 -10.207031 1.859375 -10.28125 C 2.109375 -10.351562 2.34375 -10.390625 2.5625 -10.390625 C 2.75 -10.390625 2.882812 -10.289062 2.96875 -10.09375 C 3.050781 -9.90625 3.113281 -9.703125 3.15625 -9.484375 C 3.207031 -9.273438 3.238281 -9.140625 3.25 -9.078125 C 3.675781 -9.535156 4.160156 -9.898438 4.703125 -10.171875 C 5.253906 -10.441406 5.8125 -10.578125 6.375 -10.578125 C 7.382812 -10.578125 8.175781 -10.289062 8.75 -9.71875 C 9.332031 -9.144531 9.625 -8.347656 9.625 -7.328125 L 9.625 -0.40625 C 9.625 -0.101562 9.359375 0.046875 8.828125 0.046875 L 8.75 0.046875 C 8.21875 0.046875 7.953125 -0.101562 7.953125 -0.40625 L 7.953125 -7.171875 C 7.953125 -7.785156 7.773438 -8.257812 7.421875 -8.59375 C 7.066406 -8.9375 6.566406 -9.109375 5.921875 -9.109375 C 5.460938 -9.109375 5.007812 -8.984375 4.5625 -8.734375 C 4.113281 -8.484375 3.722656 -8.144531 3.390625 -7.71875 L 3.390625 -0.40625 C 3.390625 -0.101562 3.125 0.046875 2.59375 0.046875 Z M 2.515625 0.046875 "/></g></g></g><g fill="#ffffff" fill-opacity="1"><g transform="translate(143.139343, 230.7589)"><g><path d="M 4.5 0.046875 C 4.03125 0.046875 3.765625 -0.0625 3.703125 -0.28125 L 0.484375 -9.890625 C 0.441406 -10.015625 0.421875 -10.101562 0.421875 -10.15625 C 0.421875 -10.375 0.707031 -10.484375 1.28125 -10.484375 L 1.375 -10.484375 C 1.84375 -10.484375 2.109375 -10.378906 2.171875 -10.171875 L 4.21875 -3.796875 C 4.351562 -3.367188 4.585938 -2.535156 4.921875 -1.296875 L 5 -1.296875 L 5.140625 -1.90625 C 5.285156 -2.65625 5.4375 -3.269531 5.59375 -3.75 L 7.65625 -10.171875 C 7.71875 -10.378906 7.988281 -10.484375 8.46875 -10.484375 L 8.53125 -10.484375 C 9.019531 -10.484375 9.265625 -10.375 9.265625 -10.15625 C 9.265625 -10.082031 9.25 -9.988281 9.21875 -9.875 L 6 -0.28125 C 5.925781 -0.0625 5.660156 0.046875 5.203125 0.046875 Z M 4.5 0.046875 "/></g></g></g><g fill="#ffffff" fill-opacity="1"><g transform="translate(152.824157, 230.7589)"><g><path d="M 5.734375 0.125 C 4.234375 0.125 3.082031 -0.328125 2.28125 -1.234375 C 1.488281 -2.140625 1.09375 -3.453125 1.09375 -5.171875 C 1.09375 -6.910156 1.492188 -8.242188 2.296875 -9.171875 C 3.097656 -10.109375 4.242188 -10.578125 5.734375 -10.578125 C 7.203125 -10.578125 8.320312 -10.113281 9.09375 -9.1875 C 9.875 -8.257812 10.265625 -6.921875 10.265625 -5.171875 C 10.265625 -3.441406 9.878906 -2.125 9.109375 -1.21875 C 8.347656 -0.320312 7.222656 0.125 5.734375 0.125 Z M 5.671875 -1.3125 C 6.648438 -1.3125 7.367188 -1.628906 7.828125 -2.265625 C 8.296875 -2.898438 8.53125 -3.882812 8.53125 -5.21875 C 8.53125 -6.550781 8.296875 -7.535156 7.828125 -8.171875 C 7.367188 -8.816406 6.648438 -9.140625 5.671875 -9.140625 C 4.703125 -9.140625 3.988281 -8.820312 3.53125 -8.1875 C 3.082031 -7.550781 2.859375 -6.5625 2.859375 -5.21875 C 2.859375 -3.882812 3.082031 -2.898438 3.53125 -2.265625 C 3.988281 -1.628906 4.703125 -1.3125 5.671875 -1.3125 Z M 5.671875 -1.3125 "/></g></g></g><g fill="#ffffff" fill-opacity="1"><g transform="translate(164.186342, 230.7589)"><g><path d="M 4.21875 0.125 C 3.550781 0.125 2.953125 -0.078125 2.421875 -0.484375 C 1.898438 -0.890625 1.640625 -1.609375 1.640625 -2.640625 L 1.640625 -14.59375 C 1.640625 -14.882812 1.90625 -15.03125 2.4375 -15.03125 L 2.515625 -15.03125 C 3.046875 -15.03125 3.3125 -14.882812 3.3125 -14.59375 L 3.3125 -2.796875 C 3.3125 -2.234375 3.40625 -1.84375 3.59375 -1.625 C 3.789062 -1.414062 4.054688 -1.3125 4.390625 -1.3125 C 4.648438 -1.3125 4.84375 -1.328125 4.96875 -1.359375 C 5.09375 -1.398438 5.1875 -1.421875 5.25 -1.421875 C 5.375 -1.421875 5.472656 -1.296875 5.546875 -1.046875 C 5.628906 -0.796875 5.671875 -0.609375 5.671875 -0.484375 C 5.671875 -0.078125 5.1875 0.125 4.21875 0.125 Z M 4.21875 0.125 "/></g></g></g><g fill="#ffffff" fill-opacity="1"><g transform="translate(170.117048, 230.7589)"><g><path d="M 4.5 0.046875 C 4.03125 0.046875 3.765625 -0.0625 3.703125 -0.28125 L 0.484375 -9.890625 C 0.441406 -10.015625 0.421875 -10.101562 0.421875 -10.15625 C 0.421875 -10.375 0.707031 -10.484375 1.28125 -10.484375 L 1.375 -10.484375 C 1.84375 -10.484375 2.109375 -10.378906 2.171875 -10.171875 L 4.21875 -3.796875 C 4.351562 -3.367188 4.585938 -2.535156 4.921875 -1.296875 L 5 -1.296875 L 5.140625 -1.90625 C 5.285156 -2.65625 5.4375 -3.269531 5.59375 -3.75 L 7.65625 -10.171875 C 7.71875 -10.378906 7.988281 -10.484375 8.46875 -10.484375 L 8.53125 -10.484375 C 9.019531 -10.484375 9.265625 -10.375 9.265625 -10.15625 C 9.265625 -10.082031 9.25 -9.988281 9.21875 -9.875 L 6 -0.28125 C 5.925781 -0.0625 5.660156 0.046875 5.203125 0.046875 Z M 4.5 0.046875 "/></g></g></g><g fill="#ffffff" fill-opacity="1"><g transform="translate(179.801862, 230.7589)"><g><path d="M 2.625 -12.3125 C 2.03125 -12.3125 1.734375 -12.472656 1.734375 -12.796875 L 1.734375 -13.90625 C 1.734375 -14.226562 2.054688 -14.390625 2.703125 -14.390625 C 3.285156 -14.390625 3.578125 -14.226562 3.578125 -13.90625 L 3.578125 -12.796875 C 3.578125 -12.472656 3.257812 -12.3125 2.625 -12.3125 Z M 2.625 0.046875 C 2.082031 0.046875 1.8125 -0.101562 1.8125 -0.40625 L 1.8125 -10.046875 C 1.8125 -10.335938 2.082031 -10.484375 2.625 -10.484375 L 2.703125 -10.484375 C 3.234375 -10.484375 3.5 -10.335938 3.5 -10.046875 L 3.5 -0.40625 C 3.5 -0.101562 3.234375 0.046875 2.703125 0.046875 Z M 2.625 0.046875 "/></g></g></g><g fill="#ffffff" fill-opacity="1"><g transform="translate(185.093564, 230.7589)"><g><path d="M 12.3125 -10.578125 C 13.144531 -10.578125 13.875 -10.335938 14.5 -9.859375 C 15.132812 -9.390625 15.453125 -8.546875 15.453125 -7.328125 L 15.453125 -0.40625 C 15.453125 -0.101562 15.1875 0.046875 14.65625 0.046875 L 14.5625 0.046875 C 14.03125 0.046875 13.765625 -0.101562 13.765625 -0.40625 L 13.765625 -7.171875 C 13.765625 -7.773438 13.601562 -8.25 13.28125 -8.59375 C 12.957031 -8.9375 12.476562 -9.109375 11.84375 -9.109375 C 11 -9.109375 10.179688 -8.644531 9.390625 -7.71875 C 9.398438 -7.625 9.40625 -7.488281 9.40625 -7.3125 L 9.40625 -0.40625 C 9.40625 -0.101562 9.140625 0.046875 8.609375 0.046875 L 8.53125 0.046875 C 8 0.046875 7.734375 -0.101562 7.734375 -0.40625 L 7.734375 -7.171875 C 7.734375 -7.773438 7.566406 -8.25 7.234375 -8.59375 C 6.910156 -8.9375 6.4375 -9.109375 5.8125 -9.109375 C 5.382812 -9.109375 4.988281 -9.003906 4.625 -8.796875 C 4.257812 -8.597656 3.957031 -8.378906 3.71875 -8.140625 C 3.488281 -7.898438 3.375 -7.765625 3.375 -7.734375 L 3.375 -0.40625 C 3.375 -0.101562 3.109375 0.046875 2.578125 0.046875 L 2.5 0.046875 C 1.96875 0.046875 1.703125 -0.101562 1.703125 -0.40625 L 1.703125 -7.421875 C 1.703125 -8.296875 1.660156 -8.921875 1.578125 -9.296875 C 1.492188 -9.679688 1.453125 -9.894531 1.453125 -9.9375 C 1.453125 -10.09375 1.578125 -10.207031 1.828125 -10.28125 C 2.085938 -10.351562 2.320312 -10.390625 2.53125 -10.390625 C 2.71875 -10.390625 2.851562 -10.289062 2.9375 -10.09375 C 3.03125 -9.90625 3.097656 -9.703125 3.140625 -9.484375 C 3.191406 -9.273438 3.222656 -9.140625 3.234375 -9.078125 C 3.609375 -9.503906 4.054688 -9.859375 4.578125 -10.140625 C 5.109375 -10.429688 5.675781 -10.578125 6.28125 -10.578125 C 6.875 -10.578125 7.429688 -10.453125 7.953125 -10.203125 C 8.484375 -9.953125 8.878906 -9.519531 9.140625 -8.90625 C 9.546875 -9.382812 10.023438 -9.78125 10.578125 -10.09375 C 11.128906 -10.414062 11.707031 -10.578125 12.3125 -10.578125 Z M 12.3125 -10.578125 "/></g></g></g><g fill="#ffffff" fill-opacity="1"><g transform="translate(202.027008, 230.7589)"><g><path d="M 6 0.125 C 4.332031 0.125 3.097656 -0.304688 2.296875 -1.171875 C 1.492188 -2.046875 1.09375 -3.375 1.09375 -5.15625 C 1.09375 -6.925781 1.484375 -8.269531 2.265625 -9.1875 C 3.054688 -10.113281 4.21875 -10.578125 5.75 -10.578125 C 7.113281 -10.578125 8.140625 -10.128906 8.828125 -9.234375 C 9.523438 -8.347656 9.875 -7.054688 9.875 -5.359375 C 9.875 -5.234375 9.789062 -5.0625 9.625 -4.84375 C 9.46875 -4.632812 9.332031 -4.53125 9.21875 -4.53125 L 2.890625 -4.53125 C 2.972656 -3.425781 3.257812 -2.613281 3.75 -2.09375 C 4.25 -1.570312 4.988281 -1.3125 5.96875 -1.3125 C 6.53125 -1.3125 7.015625 -1.378906 7.421875 -1.515625 C 7.828125 -1.660156 8.160156 -1.800781 8.421875 -1.9375 C 8.691406 -2.082031 8.847656 -2.15625 8.890625 -2.15625 C 9.023438 -2.15625 9.175781 -2.019531 9.34375 -1.75 C 9.507812 -1.488281 9.59375 -1.289062 9.59375 -1.15625 C 9.59375 -1 9.425781 -0.816406 9.09375 -0.609375 C 8.757812 -0.398438 8.316406 -0.222656 7.765625 -0.078125 C 7.210938 0.0546875 6.625 0.125 6 0.125 Z M 8.09375 -5.96875 C 8.09375 -8.082031 7.296875 -9.140625 5.703125 -9.140625 C 3.984375 -9.140625 3.046875 -8.082031 2.890625 -5.96875 Z M 8.09375 -5.96875 "/></g></g></g><g fill="#ffffff" fill-opacity="1"><g transform="translate(212.79013, 230.7589)"><g><path d="M 2.515625 0.046875 C 1.984375 0.046875 1.71875 -0.101562 1.71875 -0.40625 L 1.71875 -7.421875 C 1.71875 -8.296875 1.675781 -8.921875 1.59375 -9.296875 C 1.519531 -9.679688 1.484375 -9.894531 1.484375 -9.9375 C 1.484375 -10.09375 1.609375 -10.207031 1.859375 -10.28125 C 2.109375 -10.351562 2.34375 -10.390625 2.5625 -10.390625 C 2.75 -10.390625 2.882812 -10.289062 2.96875 -10.09375 C 3.050781 -9.90625 3.113281 -9.703125 3.15625 -9.484375 C 3.207031 -9.273438 3.238281 -9.140625 3.25 -9.078125 C 3.675781 -9.535156 4.160156 -9.898438 4.703125 -10.171875 C 5.253906 -10.441406 5.8125 -10.578125 6.375 -10.578125 C 7.382812 -10.578125 8.175781 -10.289062 8.75 -9.71875 C 9.332031 -9.144531 9.625 -8.347656 9.625 -7.328125 L 9.625 -0.40625 C 9.625 -0.101562 9.359375 0.046875 8.828125 0.046875 L 8.75 0.046875 C 8.21875 0.046875 7.953125 -0.101562 7.953125 -0.40625 L 7.953125 -7.171875 C 7.953125 -7.785156 7.773438 -8.257812 7.421875 -8.59375 C 7.066406 -8.9375 6.566406 -9.109375 5.921875 -9.109375 C 5.460938 -9.109375 5.007812 -8.984375 4.5625 -8.734375 C 4.113281 -8.484375 3.722656 -8.144531 3.390625 -7.71875 L 3.390625 -0.40625 C 3.390625 -0.101562 3.125 0.046875 2.59375 0.046875 Z M 2.515625 0.046875 "/></g></g></g><g fill="#ffffff" fill-opacity="1"><g transform="translate(223.912688, 230.7589)"><g><path d="M 4.71875 0.125 C 4.050781 0.125 3.453125 -0.078125 2.921875 -0.484375 C 2.398438 -0.890625 2.140625 -1.609375 2.140625 -2.640625 L 2.140625 -9.015625 L 1.140625 -9.015625 C 1.003906 -9.015625 0.898438 -9.0625 0.828125 -9.15625 C 0.765625 -9.25 0.734375 -9.398438 0.734375 -9.609375 L 0.734375 -9.859375 C 0.734375 -10.066406 0.765625 -10.21875 0.828125 -10.3125 C 0.898438 -10.40625 1.003906 -10.453125 1.140625 -10.453125 L 2.140625 -10.453125 L 2.375 -12.546875 C 2.414062 -12.835938 2.628906 -12.984375 3.015625 -12.984375 L 3.21875 -12.984375 C 3.613281 -12.984375 3.8125 -12.835938 3.8125 -12.546875 L 3.8125 -10.453125 L 5.5 -10.453125 C 5.644531 -10.453125 5.742188 -10.40625 5.796875 -10.3125 C 5.859375 -10.21875 5.890625 -10.066406 5.890625 -9.859375 L 5.890625 -9.609375 C 5.890625 -9.398438 5.859375 -9.25 5.796875 -9.15625 C 5.742188 -9.0625 5.644531 -9.015625 5.5 -9.015625 L 3.8125 -9.015625 L 3.8125 -2.796875 C 3.8125 -2.234375 3.90625 -1.84375 4.09375 -1.625 C 4.289062 -1.414062 4.554688 -1.3125 4.890625 -1.3125 C 5.148438 -1.3125 5.34375 -1.328125 5.46875 -1.359375 C 5.59375 -1.398438 5.6875 -1.421875 5.75 -1.421875 C 5.875 -1.421875 5.972656 -1.296875 6.046875 -1.046875 C 6.128906 -0.796875 6.171875 -0.609375 6.171875 -0.484375 C 6.171875 -0.078125 5.6875 0.125 4.71875 0.125 Z M 4.71875 0.125 "/></g></g></g><g fill="#ffffff" fill-opacity="1"><g transform="translate(230.741983, 230.7589)"><g><path d="M 5.734375 0.125 C 4.234375 0.125 3.082031 -0.328125 2.28125 -1.234375 C 1.488281 -2.140625 1.09375 -3.453125 1.09375 -5.171875 C 1.09375 -6.910156 1.492188 -8.242188 2.296875 -9.171875 C 3.097656 -10.109375 4.242188 -10.578125 5.734375 -10.578125 C 7.203125 -10.578125 8.320312 -10.113281 9.09375 -9.1875 C 9.875 -8.257812 10.265625 -6.921875 10.265625 -5.171875 C 10.265625 -3.441406 9.878906 -2.125 9.109375 -1.21875 C 8.347656 -0.320312 7.222656 0.125 5.734375 0.125 Z M 5.671875 -1.3125 C 6.648438 -1.3125 7.367188 -1.628906 7.828125 -2.265625 C 8.296875 -2.898438 8.53125 -3.882812 8.53125 -5.21875 C 8.53125 -6.550781 8.296875 -7.535156 7.828125 -8.171875 C 7.367188 -8.816406 6.648438 -9.140625 5.671875 -9.140625 C 4.703125 -9.140625 3.988281 -8.820312 3.53125 -8.1875 C 3.082031 -7.550781 2.859375 -6.5625 2.859375 -5.21875 C 2.859375 -3.882812 3.082031 -2.898438 3.53125 -2.265625 C 3.988281 -1.628906 4.703125 -1.3125 5.671875 -1.3125 Z M 5.671875 -1.3125 "/></g></g></g><g fill="#ffffff" fill-opacity="1"><g transform="translate(242.104169, 230.7589)"><g/></g></g><g fill="#ffffff" fill-opacity="1"><g transform="translate(246.896657, 230.7589)"><g><path d="M 4.578125 0.046875 C 4.097656 0.046875 3.832031 -0.0625 3.78125 -0.28125 L 0.359375 -13.40625 C 0.316406 -13.570312 0.296875 -13.664062 0.296875 -13.6875 C 0.296875 -13.914062 0.582031 -14.03125 1.15625 -14.03125 L 1.359375 -14.03125 C 1.835938 -14.03125 2.101562 -13.921875 2.15625 -13.703125 L 4.703125 -3.875 C 4.765625 -3.625 4.832031 -3.269531 4.90625 -2.8125 C 4.988281 -2.351562 5.039062 -2.085938 5.0625 -2.015625 L 5.53125 -3.9375 L 7.953125 -13.6875 C 8.003906 -13.914062 8.265625 -14.03125 8.734375 -14.03125 L 9.046875 -14.03125 C 9.515625 -14.03125 9.773438 -13.914062 9.828125 -13.6875 L 12.3125 -3.859375 C 12.394531 -3.566406 12.46875 -3.21875 12.53125 -2.8125 C 12.59375 -2.40625 12.632812 -2.140625 12.65625 -2.015625 L 13.125 -3.921875 L 15.546875 -13.703125 C 15.597656 -13.921875 15.863281 -14.03125 16.34375 -14.03125 L 16.46875 -14.03125 C 17.039062 -14.03125 17.328125 -13.914062 17.328125 -13.6875 L 17.265625 -13.40625 L 13.8125 -0.28125 C 13.757812 -0.0625 13.492188 0.046875 13.015625 0.046875 L 12.1875 0.046875 C 11.707031 0.046875 11.441406 -0.0625 11.390625 -0.28125 L 9.21875 -8.40625 L 8.796875 -11.015625 L 8.375 -8.40625 L 6.1875 -0.28125 C 6.132812 -0.0625 5.867188 0.046875 5.390625 0.046875 Z M 4.578125 0.046875 "/></g></g></g><g fill="#ffffff" fill-opacity="1"><g transform="translate(264.509044, 230.7589)"><g><path d="M 6 0.125 C 4.332031 0.125 3.097656 -0.304688 2.296875 -1.171875 C 1.492188 -2.046875 1.09375 -3.375 1.09375 -5.15625 C 1.09375 -6.925781 1.484375 -8.269531 2.265625 -9.1875 C 3.054688 -10.113281 4.21875 -10.578125 5.75 -10.578125 C 7.113281 -10.578125 8.140625 -10.128906 8.828125 -9.234375 C 9.523438 -8.347656 9.875 -7.054688 9.875 -5.359375 C 9.875 -5.234375 9.789062 -5.0625 9.625 -4.84375 C 9.46875 -4.632812 9.332031 -4.53125 9.21875 -4.53125 L 2.890625 -4.53125 C 2.972656 -3.425781 3.257812 -2.613281 3.75 -2.09375 C 4.25 -1.570312 4.988281 -1.3125 5.96875 -1.3125 C 6.53125 -1.3125 7.015625 -1.378906 7.421875 -1.515625 C 7.828125 -1.660156 8.160156 -1.800781 8.421875 -1.9375 C 8.691406 -2.082031 8.847656 -2.15625 8.890625 -2.15625 C 9.023438 -2.15625 9.175781 -2.019531 9.34375 -1.75 C 9.507812 -1.488281 9.59375 -1.289062 9.59375 -1.15625 C 9.59375 -1 9.425781 -0.816406 9.09375 -0.609375 C 8.757812 -0.398438 8.316406 -0.222656 7.765625 -0.078125 C 7.210938 0.0546875 6.625 0.125 6 0.125 Z M 8.09375 -5.96875 C 8.09375 -8.082031 7.296875 -9.140625 5.703125 -9.140625 C 3.984375 -9.140625 3.046875 -8.082031 2.890625 -5.96875 Z M 8.09375 -5.96875 "/></g></g></g><g fill="#ffffff" fill-opacity="1"><g transform="translate(275.272166, 230.7589)"><g><path d="M 6.421875 0.125 C 5.253906 0.125 4.191406 -0.375 3.234375 -1.375 C 3.171875 -0.976562 3.066406 -0.585938 2.921875 -0.203125 C 2.847656 -0.0351562 2.664062 0.046875 2.375 0.046875 L 2.296875 0.046875 C 1.898438 0.046875 1.703125 -0.101562 1.703125 -0.40625 L 1.703125 -14.59375 C 1.703125 -14.882812 1.96875 -15.03125 2.5 -15.03125 L 2.578125 -15.03125 C 3.109375 -15.03125 3.375 -14.882812 3.375 -14.59375 L 3.375 -9.546875 C 3.800781 -9.878906 4.238281 -10.132812 4.6875 -10.3125 C 5.132812 -10.488281 5.648438 -10.578125 6.234375 -10.578125 C 7.035156 -10.578125 7.738281 -10.367188 8.34375 -9.953125 C 8.957031 -9.535156 9.4375 -8.925781 9.78125 -8.125 C 10.125 -7.332031 10.296875 -6.367188 10.296875 -5.234375 C 10.296875 -4.191406 10.140625 -3.265625 9.828125 -2.453125 C 9.515625 -1.640625 9.0625 -1.003906 8.46875 -0.546875 C 7.882812 -0.0976562 7.203125 0.125 6.421875 0.125 Z M 6.078125 -1.34375 C 6.859375 -1.34375 7.460938 -1.691406 7.890625 -2.390625 C 8.316406 -3.085938 8.53125 -4.082031 8.53125 -5.375 C 8.53125 -6.570312 8.300781 -7.488281 7.84375 -8.125 C 7.394531 -8.769531 6.734375 -9.09375 5.859375 -9.09375 C 5.421875 -9.09375 4.984375 -9.015625 4.546875 -8.859375 C 4.109375 -8.710938 3.71875 -8.488281 3.375 -8.1875 L 3.375 -2.71875 C 3.78125 -2.28125 4.21875 -1.941406 4.6875 -1.703125 C 5.15625 -1.460938 5.617188 -1.34375 6.078125 -1.34375 Z M 6.078125 -1.34375 "/></g></g></g></svg>